<svg class="js-intro-shape-right" version="1.1" xmlns="http://www.w3.org/2000/svg" xmlns:xlink="http://www.w3.org/1999/xlink" x="0px" y="0px" viewBox="0 0 600 990" xml:space="preserve"> <path class="js-path-animate-reference" fill="none" d="M693.4,691.4c4.5-62.2-38.6,39.9-30-51.9c42.3-450.2-5.3-407.1-10.6-401.1c-0.4,0.4-0.8,0.7-1.3,1C586.5,273.8,389.8,76.6,351,107c-49.3,38.6-162.3-34.8-175,53c-13.1,91-31.4,2.1-51.4,79c-29,111.7,20.7,205.1,58.5,259.3c56.1,80.5-116.8,84.6-116.8,201.2c0,116.5,134.1,199.8,386.4,102.8c138.2-53.1,148.6,367.7,261.5,387.9C868.7,1217.9,689.1,750,693.4,691.4z"></path> <path fill="#D9D9D9" class="u-hide-md" d="M726.6,1191.9c-3.9,0-8.1-0.4-12.5-1.2c-23.1-4.1-44-25.5-63.9-65.3c-17.7-35.5-33.2-82.2-48.1-127.4c-28.1-84.9-57.1-172.7-103.2-194.6c-14.4-6.8-29.4-7-46-0.6c-73.6,28.3-140.6,42.6-199,42.6c0,0-0.1,0-0.1,0c-52,0-96.7-11.8-129.2-34.2c-37.9-26-58.8-65.7-58.8-111.7c0-25.9,8.5-48.5,25.9-69.2c15.2-18,35.2-32.2,52.9-44.7c36.9-26.2,66.1-46.8,38.1-87c-60.9-87.4-80.6-174.7-58.6-259.7c9.7-37.4,19.4-36,27.9-34.7c3.5,0.5,6.8,1,9.9-1.3c5.7-4.2,10-17.9,13.6-42.9c3.4-23.4,14.3-37.5,33.5-43c17-4.9,38.1-2.8,60.3-0.6c30.1,3,61.3,6.1,81.4-9.7c18.1-14.2,68.2,19.2,126.1,57.8c65.5,43.6,139.6,93.1,174.5,74.6c0.4-0.2,0.8-0.5,1.1-0.9c1.5-1.7,5.5-5.4,10.2-3.4c9.8,4.2,15.8,30.3,17.9,77.5c3,68.3-2.6,178.4-16.6,327.3c-2.2,24-1.2,36.9,3.3,39.5c3,1.7,7.6-1.5,11.9-4.7c4.4-3.2,8.5-6.1,11.5-4.5c3.2,1.8,4.2,8.6,3.3,21.6l0,0c-1.2,15.7,11,61.1,26.4,118.6c17.2,64,38.5,143.7,49.6,213.3c13.1,81.9,9.4,132.8-11.4,155.3C750.5,1187.5,739.8,1191.9,726.6,1191.9z M476,797.2c8.1,0,15.9,1.8,23.4,5.3c46.5,22.1,75.6,110.1,103.7,195.2c14.9,45.1,30.3,91.8,48,127.2c19.8,39.5,40.4,60.7,63.2,64.8c18.7,3.4,33.3-0.6,43.5-11.7c46.5-50.6-4.6-241.4-38.5-367.7c-15.4-57.6-27.6-103.1-26.5-119l0,0c0.9-12.3,0-19.1-2.8-20.6c-2.4-1.4-6.5,1.6-10.4,4.4c-4.6,3.3-9.4,6.8-13,4.7c-4.9-2.8-6.1-15.6-3.8-40.4c14-148.8,19.6-258.9,16.6-327.2c-2.5-58.3-10.8-73.9-17.3-76.7c-4.1-1.8-7.7,1.6-9,3.1c-0.4,0.5-0.9,0.8-1.4,1.1c-5.3,2.8-11.4,4.1-18.3,4.1c-39.1,0-101.4-41.5-157.3-78.7c-55.2-36.8-107.3-71.5-124.9-57.8c-20.4,16-51.8,12.9-82.1,9.9c-43.9-4.3-85.3-8.4-92.7,42.8c-3.7,25.7-8,39.1-14,43.6c-3.4,2.6-7.1,2-10.6,1.5c-8.5-1.3-17.2-2.6-26.7,34c-22,84.7-2.3,171.8,58.4,258.9c13.1,18.8,14.8,34.6,5.2,49.9c-8.6,13.7-25.6,25.7-43.6,38.5c-36.7,26-78.4,55.5-78.4,113.1c0,45.7,20.7,85,58.4,110.9c32.4,22.2,76.9,34,128.7,34c0,0,0.1,0,0.1,0c58.3,0,125.1-14.3,198.6-42.6C460.6,798.7,468.4,797.2,476,797.2z"></path> <linearGradient id="intro-gradient" gradientUnits="userSpaceOnUse" x1="-5.1543" y1="890.741" x2="-4.2047" y2="890.4284" gradientTransform="matrix(476.144 824.7057 636.08 -367.241 -563822.125 331329.9062)"> <stop offset="0" style="stop-color:#1a237e"></stop> <stop offset="1" style="stop-color:#4b36f8"></stop></linearGradient> <path class="js-path-animate" fill="url(#intro-gradient)" d="M145.8,644.1c0,79.6,106.6,121.5,285.5,84.8c146.3-30,112,200.8,213.2,200.8c138.5,0,37.1-332.5,49.1-377.8c12.7-48.1-41,35.7-20.5-35.5c106.3-369.4,44.6-304.1,44.6-304.1c-64.3,37.1-68.1-101.6-108.2-73c-50.6,36.2-232.3-98.1-356.9-63S99,208.6,123.9,282.7c36.2,107.6,172,89.8,180.4,145.7C320.8,538.9,145.8,564.6,145.8,644.1z"></path></svg>