<svg id="Layer_2" data-name="Layer 2" xmlns="http://www.w3.org/2000/svg" xmlns:xlink="http://www.w3.org/1999/xlink" viewBox="0 0 540 540"><defs><style>.cls-1{fill:none;}.cls-2{fill:#e4a238;}.cls-3,.cls-5{fill:#4b36f8;}.cls-4{fill:#8f7cff;}.cls-5{opacity:0.2;}.cls-6{fill:#2d29be;}.cls-7{fill:#fe4c54;}.cls-8{fill:#f4bb47;}.cls-15,.cls-9{fill:#00095c;}.cls-10{fill:#a5742a;}.cls-11,.cls-13{fill:#fff;}.cls-11{stroke:#f4f4f4;stroke-width:3px;}.cls-11,.cls-15{stroke-miterlimit:10;}.cls-12{fill:#5ea2ff;}.cls-14{fill:#816fe3;}.cls-15{stroke:#00095c;stroke-width:2px;}.cls-16{clip-path:url(#clip-path);}.cls-17{fill:#ed4a56;}.cls-18{fill:#c5e0ea;}.cls-19{fill:#6b6ae9;}.cls-20{clip-path:url(#clip-path-2);}</style><clipPath id="clip-path"><rect id="SVGID" class="cls-1" x="218.39" y="286.79" width="246.83" height="187.88" rx="2.13" ry="2.13"/></clipPath><clipPath id="clip-path-2"><rect id="SVGID-2" data-name="SVGID" class="cls-1" x="481.01" y="262.29" width="29.3" height="37.52" rx="14.29" ry="14.29" transform="translate(1040.04 449.39) rotate(167.63)"/></clipPath></defs><title>BSA-CarbonIllustrations-All</title><path class="cls-2" d="M497.86,305.93a25.35,25.35,0,0,0,2.59-10.86,1.91,1.91,0,0,1,.13-.83,1.28,1.28,0,0,1,.6-.51,24.37,24.37,0,0,1,4.32-1.7c.31,5.27,3.69,9.39,5.46,14.21a2.17,2.17,0,0,1,.18,1,1.66,1.66,0,0,1-.37.79,5.84,5.84,0,0,1-2.31,1.7,9.67,9.67,0,0,1-9.07-.75c-.93-.59-1.91-1.8-1.48-3Z"/><path class="cls-2" d="M498.46,306.27a27.35,27.35,0,0,0,2.19-6.48c.09-.48.24-2,.36-2.44.76-3,1.78-3.75,4.68-4.66l-.88-.66c.43,4.28,2.44,7.72,4.24,11.54.87,1.85,2.15,3.37-.1,5.14a7.88,7.88,0,0,1-4.57,1.12c-1.51-.05-4.15-.57-5.19-1.89-.74-.95-.34-1.57-.73-2.36s-1.58-.1-1.19.69c.3.62.06,1.53.66,2.29a6.93,6.93,0,0,0,3.2,2,10.11,10.11,0,0,0,8.51-.69c2.25-1.41,2.42-2.69,1.51-5-1.69-4.37-4.48-8-5-12.84a.7.7,0,0,0-.87-.67c-1.84.57-4.76,1.16-5.47,3.11-.54,1.47-.24,3.41-.53,4.95a26.23,26.23,0,0,1-2.05,6.16C496.89,306.38,498.08,307.08,498.46,306.27Z"/><path class="cls-3" d="M534.78,434.8c-4.84.73-8.79,4.94-10.66,9.82-.68,1.79-1,4.12.29,5.42a3.17,3.17,0,0,0,3.09.61,9.5,9.5,0,0,0,2.88-1.63l4.48-3.26a7.58,7.58,0,0,0,2.68-2.8,7.05,7.05,0,0,0,.45-3.1c0-2-.41-4.1-1.81-5.34Z"/><path class="cls-3" d="M504.72,448.22a20.84,20.84,0,0,0-15.45.34c-.79.36-1.62.84-1.79,1.56a1.73,1.73,0,0,0,.35,1.36c1.44,2.18,4.89,2.88,8,3.13,3.43.28,7.5.05,9.42-2.25C506.29,451.07,504.72,448.22,504.72,448.22Z"/><path class="cls-4" d="M501,380.56l3.53,23a7.91,7.91,0,0,0,1.69,3.77l23.68,29.4a2,2,0,0,0,2.22.6l3-1.17a2,2,0,0,0,1.16-2.4,103.75,103.75,0,0,0-17.39-32.53V357.6Z"/><ellipse class="cls-5" cx="142.1" cy="395.42" rx="78.87" ry="8"/><path class="cls-6" d="M164.05,334.65H115.24a2.76,2.76,0,1,1,0-5.52h48.81a2.76,2.76,0,0,1,0,5.52Z"/><path class="cls-6" d="M164.05,361.13H115.24a2.76,2.76,0,1,1,0-5.52h48.81a2.76,2.76,0,1,1,0,5.52Z"/><path class="cls-6" d="M164.05,387.61H115.24a2.76,2.76,0,1,1,0-5.52h48.81a2.76,2.76,0,0,1,0,5.52Z"/><path class="cls-3" d="M111.09,398.66H111a2.76,2.76,0,0,1-2.63-2.89l8.29-171.31a2.76,2.76,0,1,1,5.52.27L113.85,396A2.76,2.76,0,0,1,111.09,398.66Z"/><path class="cls-3" d="M168.19,398.66a2.77,2.77,0,0,1-2.76-2.63l-8.29-171.3a2.76,2.76,0,1,1,5.52-.27L171,395.77a2.75,2.75,0,0,1-2.62,2.89Z"/><path class="cls-7" d="M118.22,60.62c0,3-.25,6.1.71,9a12.08,12.08,0,0,1,.77,2.81,17.41,17.41,0,0,1-.53,3.84c-.73,4.78,2,9.37,5,13.24,1.9,2.44,4.27,5,7.4,5.25,2.64.23,5.13-1.23,7.77-1.44,2.48-.2,4.91.71,7.38,1a16.39,16.39,0,0,0,7.67-.8c3.45-1.24,6.62-4,7-7.58.24-2-.38-4.24.75-6,.5-.77,1.3-1.32,1.75-2.12,1.15-2-.35-4.41-.94-6.65-1.12-4.24,1.21-8.76.35-13.06-.38-1.87-1.34-3.62-1.48-5.52-.12-1.65.39-3.3.31-5-.12-2.55-1.61-4.81-3.05-6.93s-3-4.34-5.34-5.46C153.82,35.33,117.84,22.37,118.22,60.62Z"/><path class="cls-7" d="M117.53,60.62a46.1,46.1,0,0,0,.18,6.65c.17,1.2.6,2.28.87,3.44a14.64,14.64,0,0,1-.09,5.44c-.53,3.94,1,7.65,3.13,10.9,1.92,3,4.38,6.46,7.76,7.83a7.86,7.86,0,0,0,4.1.45c3.36-.43,5.9-1.66,9.42-1,6.58,1.15,15.77,1.35,18.75-6.27.69-1.76.26-3.35.55-5.14.39-2.41,2.32-3.59,2.79-5.77.34-1.57-.34-3.14-.82-4.59-1-3-.64-5.61-.23-8.69a20.37,20.37,0,0,0,.26-4.74c-.31-2.91-1.7-5.27-1.54-8.28.25-4.68-.73-7.31-3.46-11.17-1.88-2.67-3.88-4.66-7-5.52-6.17-1.73-13.09-2.36-19.31-.5-12,3.56-15.39,15.71-15.37,27a.69.69,0,0,0,1.38,0c0-9.45,2.18-20.22,11.58-24.62,5.69-2.67,12.43-2.49,18.46-1.25a23,23,0,0,1,4.4,1.15c2,.88,3.41,2.69,4.66,4.44a20.25,20.25,0,0,1,3.13,5.44c.74,2.34-.11,4.55.07,6.89a24.08,24.08,0,0,0,1.22,4.59,18,18,0,0,1,0,7.3,22,22,0,0,0,.9,9.8c.81,3-2.32,5.38-2.52,8.52-.16,2.6,0,4.8-1.87,6.9a12.36,12.36,0,0,1-6.83,3.7c-4.46.92-8.53-1.23-12.92-.85-2.8.25-5.52,2-8.41,1.27s-5-3.42-6.66-5.67a25.78,25.78,0,0,1-3.38-5.81c-1.23-3.09-.75-5.4-.43-8.54a11.12,11.12,0,0,0-.73-4.47,33.17,33.17,0,0,1-.68-8.79A.69.69,0,0,0,117.53,60.62Z"/><path class="cls-2" d="M155.28,90.76H128l.19-10.7,1.63-1.16A13.25,13.25,0,0,0,135.55,68a11.53,11.53,0,0,0-.31-2.48H148a10.93,10.93,0,0,0-.3,2.48,13.25,13.25,0,0,0,5.74,10.9l1.63,1.16Z"/><rect class="cls-8" x="121.53" y="29.4" width="36.29" height="42.46" rx="16.92" ry="16.92" transform="translate(-5.53 19.2) rotate(-7.71)"/><circle class="cls-9" cx="129.67" cy="55.03" r="1.62"/><path class="cls-9" d="M131.08,49.28c-1.87.47-3.71,1.07-4.86,2.71-.51.73.68,1.42,1.19.7.91-1.3,2.58-1.71,4-2.08a.69.69,0,0,0-.36-1.33Z"/><circle class="cls-9" cx="149.78" cy="52.99" r="1.62"/><path class="cls-7" d="M138.24,35.07a10.73,10.73,0,0,0-.27,3.57,13,13,0,0,1,.16,2.24,2.38,2.38,0,0,1-1,1.88l.21-.26-6.36,5a10.16,10.16,0,0,0-2.61,2.62c-1,1.61-1,3.62-1.8,5.3-1.79,3.57-7,5-7.71,8.88-2.3-7.89-3.91-16.6-.65-24.14a26.45,26.45,0,0,1,3.64-5.88c3-3.83,7.06-7.15,11.84-8.25a21.09,21.09,0,0,1,6.82-.29,26,26,0,0,1,15.85,7.15c4.16,4.2,6.47,10.38,5.38,16.19a7.17,7.17,0,0,1-5.1-2.4,10.57,10.57,0,0,0-1.71-1.88c-1.57-1.12-3.83-.56-5.57-1.42-1.38-.68-2.22-2.16-3.56-2.93s-3-.74-4.39-1.31a5.68,5.68,0,0,1-3.43-4.27Z"/><path class="cls-7" d="M137.57,34.88c-.35,1.9.39,6.17-1,7.39l1,1,.21-.26a.69.69,0,0,0-1-1c-2.56,2-5.48,3.88-7.79,6.19-1.78,1.78-1.89,3.74-2.74,6-1.61,4.25-6.92,5.4-8.13,9.91h1.33c-2.7-9.47-4.21-19.57,1.88-28.09,2.83-4,6.7-7.63,11.46-9,4.49-1.35,9.6-.64,14,.86a22.09,22.09,0,0,1,11.54,8.67,18.43,18.43,0,0,1,2.54,6.07c.42,1.92,1.13,7.12-2.46,4.77-1.55-1-2.26-2.83-4-3.57-1.27-.54-2.7-.3-4-.73-2.11-.7-3.27-2.81-5.35-3.63-2.92-1.16-5.47-.92-6.45-4.73l-1,.78.31.21c.74.5,1.43-.69.7-1.19l-.31-.21a.69.69,0,0,0-1,.78,6.61,6.61,0,0,0,3.32,4.47c1.5.79,3.35.7,4.81,1.53,1.21.68,2,2,3.18,2.68a7.08,7.08,0,0,0,2.51.83,8.12,8.12,0,0,1,5,2.61,8.59,8.59,0,0,0,5.59,2.6.67.67,0,0,0,.66-.51c2.38-15.47-14.54-27.23-28.89-23.89-7,1.63-13.09,8-15.89,14.44-3.43,7.89-1.7,16.73.57,24.67a.69.69,0,0,0,1.33,0c1.08-4,5.81-5.17,7.65-8.71,1.33-2.58,1.23-5.07,3.57-7.2s4.74-3.73,7.09-5.57l-1-1-.21.26a.69.69,0,0,0,1,1c2.21-2,.85-5.39,1.34-8C139.07,34.38,137.74,34,137.57,34.88Z"/><path class="cls-9" d="M149.06,48.88a5.22,5.22,0,0,1,4.05,1c.69.54,1.67-.43,1-1a6.74,6.74,0,0,0-5.39-1.39c-.87.15-.5,1.48.37,1.33Z"/><path class="cls-10" d="M137,58.14c-.64,1.56-.74,3.71,1.35,4.09a4.52,4.52,0,0,0,4.47-2.08c.5-.75-.7-1.44-1.19-.7a3.19,3.19,0,0,1-2.5,1.46c-1.63.06-1.21-1.39-.8-2.4.34-.82-1-1.18-1.33-.37Z"/><rect class="cls-11" x="2" y="124.95" width="270.68" height="199.28" rx="2.13" ry="2.13"/><rect class="cls-3" x="19.72" y="151.53" width="93.02" height="6.45" rx="3.22" ry="3.22"/><rect class="cls-9" x="47.35" y="177.55" width="66.31" height="6.45" rx="3.22" ry="3.22"/><rect class="cls-3" x="47.35" y="196.66" width="36.57" height="6.45" rx="3.22" ry="3.22"/><rect class="cls-12" x="47.35" y="215.77" width="60.85" height="6.45" rx="3.15" ry="3.15"/><rect class="cls-9" x="19.72" y="276.01" width="60.85" height="6.45" rx="3.15" ry="3.15"/><rect class="cls-12" x="88.32" y="196.66" width="49.85" height="6.45" rx="3.22" ry="3.22"/><rect class="cls-3" x="118.06" y="177.55" width="37.99" height="6.45" rx="3.22" ry="3.22"/><rect class="cls-3" x="119.22" y="276.01" width="37.99" height="6.45" rx="3.22" ry="3.22"/><rect class="cls-9" x="122.13" y="215.77" width="20.32" height="6.45" rx="3.22" ry="3.22"/><rect class="cls-12" x="94.5" y="276.01" width="20.32" height="6.45" rx="3.22" ry="3.22"/><rect class="cls-12" x="126.67" y="151.53" width="39.14" height="6.45" rx="3.22" ry="3.22"/><circle class="cls-7" cx="119.7" cy="154.76" r="2.56"/><circle class="cls-7" cx="162.96" cy="180.77" r="2.56"/><rect class="cls-3" x="47.35" y="295.13" width="53.68" height="6.45" rx="3.22" ry="3.22"/><circle class="cls-7" cx="108" cy="298.35" r="2.56"/><circle class="cls-7" cx="115.16" cy="219" r="2.56"/><circle class="cls-7" cx="87.53" cy="279.24" r="2.56"/><path class="cls-9" d="M170.22,156.14a1.38,1.38,0,1,1,0-2.76,1.51,1.51,0,0,0,.81-.14,2.8,2.8,0,0,0-.39-1.29,1.43,1.43,0,0,1-.15-.39,4,4,0,0,1,.68-3.53c1.4-1.74,4-1.79,4.31-1.79a1.38,1.38,0,1,1,0,2.76h0a3.37,3.37,0,0,0-2.17.76,1.19,1.19,0,0,0-.17,1c.35.67,1.08,2.42.25,3.85A3.34,3.34,0,0,1,170.22,156.14Z"/><path class="cls-9" d="M175.48,163.28c-.29,0-2.91-.05-4.31-1.8a4,4,0,0,1-.68-3.53,1.32,1.32,0,0,1,.15-.39,2.47,2.47,0,0,0,.37-1.31h0a2.06,2.06,0,0,0-.78-.11,1.38,1.38,0,1,1,0-2.76,3.33,3.33,0,0,1,3.18,1.49,4.21,4.21,0,0,1-.25,3.85,1.19,1.19,0,0,0,.17,1,3.31,3.31,0,0,0,2.17.76,1.39,1.39,0,0,1,0,2.77Z"/><path class="cls-9" d="M161.61,280.62a1.38,1.38,0,0,1,0-2.76,1.46,1.46,0,0,0,.81-.14,2.7,2.7,0,0,0-.38-1.28,1.49,1.49,0,0,1-.15-.4,4,4,0,0,1,.68-3.53c1.39-1.74,4-1.79,4.31-1.79a1.38,1.38,0,0,1,0,2.76,3.35,3.35,0,0,0-2.17.76,1.2,1.2,0,0,0-.17,1c.35.68,1.08,2.42.25,3.85A3.34,3.34,0,0,1,161.61,280.62Z"/><path class="cls-9" d="M166.88,287.76c-.29,0-2.92-.05-4.31-1.8a4,4,0,0,1-.68-3.53A1.43,1.43,0,0,1,162,282a2.35,2.35,0,0,0,.36-1.31,2,2,0,0,0-.79-.11,1.38,1.38,0,0,1,0-2.76,3.35,3.35,0,0,1,3.19,1.49c.83,1.44.1,3.18-.25,3.86a1.17,1.17,0,0,0,.17,1,3.3,3.3,0,0,0,2.16.76,1.39,1.39,0,0,1,0,2.77Z"/><path class="cls-9" d="M52.62,240.94a3.35,3.35,0,0,1-3.19-1.49,4.26,4.26,0,0,1,.25-3.86,1.17,1.17,0,0,0-.17-1,3.24,3.24,0,0,0-2.17-.76,1.39,1.39,0,0,1,0-2.77c.29,0,2.92.05,4.31,1.8a4,4,0,0,1,.69,3.53,1.34,1.34,0,0,1-.16.39,2.44,2.44,0,0,0-.36,1.31h0a2.09,2.09,0,0,0,.79.11,1.38,1.38,0,1,1,0,2.76ZM51,236.07h0Z"/><path class="cls-9" d="M47.35,248.08a1.38,1.38,0,0,1,0-2.76h0a3.33,3.33,0,0,0,2.17-.76,1.21,1.21,0,0,0,.17-1c-.35-.68-1.07-2.42-.25-3.85a3.34,3.34,0,0,1,3.19-1.5,1.38,1.38,0,1,1,0,2.76,1.46,1.46,0,0,0-.81.14,2.59,2.59,0,0,0,.39,1.29,1.66,1.66,0,0,1,.15.39,4,4,0,0,1-.68,3.53C50.27,248,47.64,248.08,47.35,248.08Z"/><path class="cls-4" d="M116.72,94.88l2.09,17.19a62.9,62.9,0,0,1-.11,15.87l-.46,3.34,38.54-1.08v-5.4a62.13,62.13,0,0,1,2.14-16.18l3.18-11.79-4.48-10.4L130,88.81Z"/><path class="cls-4" d="M118.25,132a.68.68,0,0,1-.52-.23.69.69,0,0,1-.17-.55l.45-3.35a61.41,61.41,0,0,0,.11-15.68L116,95a.68.68,0,0,1,.39-.71l13.27-6.07a.86.86,0,0,1,.23-.06l27.63-2.38a.66.66,0,0,1,.69.41l4.49,10.4a.73.73,0,0,1,0,.46l-3.18,11.79a61.61,61.61,0,0,0-2.12,16v5.4a.69.69,0,0,1-.67.69L118.26,132Zm-.78-36.67,2,16.69a62.85,62.85,0,0,1-.11,16l-.34,2.54,37.05-1V124.8a62.66,62.66,0,0,1,2.17-16.36l3.11-11.56-4.19-9.72-27,2.33Z"/><circle class="cls-13" cx="8.11" cy="130.48" r="1.55"/><circle class="cls-13" cx="15.4" cy="130.48" r="1.55"/><circle class="cls-13" cx="22.69" cy="130.48" r="1.55"/><circle class="cls-14" cx="142.68" cy="123.06" r="1.03"/><path class="cls-10" d="M138.88,67.06c3.68.54,7.36-.78,9-4.26.39-.8-.8-1.5-1.19-.7a6.83,6.83,0,0,1-7.48,3.62c-.87-.12-1.25,1.21-.37,1.34Z"/><path class="cls-15" d="M272.68,127.08V136H2v-8.93A2.13,2.13,0,0,1,4.13,125H270.55A2.14,2.14,0,0,1,272.68,127.08Z"/><path class="cls-2" d="M100.31,141.54l0,8.64a6.07,6.07,0,0,0,.65,3.41,5.93,5.93,0,0,0,3.44,2,2.29,2.29,0,0,0,.89.15,1.71,1.71,0,0,0,1.05-.55c1.45-1.45,1.11-3.84.65-5.84L105,140.85Z"/><path class="cls-2" d="M156.8,143.12a21,21,0,0,1-3.36,5.29A10,10,0,0,0,151,154.1a3.44,3.44,0,0,0,1.06,2.71,3.79,3.79,0,0,0,3,.56,5,5,0,0,0,2.74-1.27,6.87,6.87,0,0,0,1.64-4.2c.31-2.42.3-5.18-1.4-6.94Z"/><path class="cls-4" d="M157.72,94.66l8.83,19.83-13,31.85,6.59,2.58,16.21-29a13.42,13.42,0,0,0,.62-11.8l-8.32-19.43a12,12,0,0,0-5.2-5.76l-9.87-5.46c-3.51,3.3-8.49,4.6-13.31,4.88-3.95.23-8.43-.41-10.79-3.58l-12.81,5.86a9.21,9.21,0,0,0-3.44,2.71C108.72,93.11,95,108.74,95,112.21c0,4.42,2.7,22.56,3.78,29.65a3.38,3.38,0,0,0,3.33,2.86h.67a3.36,3.36,0,0,0,3.36-3.37V114.81l14.43-18.52Z"/><path class="cls-4" d="M160.13,149.61a.73.73,0,0,1-.25,0L153.29,147a.66.66,0,0,1-.38-.37.7.7,0,0,1,0-.53l12.88-31.58-8.51-19.13L121,97l-14.09,18.09v26.3a4.06,4.06,0,0,1-4.05,4.06h-.67a4,4,0,0,1-4-3.45c-1.14-7.47-3.79-25.32-3.79-29.75,0-2.71,6.39-10.71,14.12-20.11,1.69-2.07,3.19-3.89,4.21-5.2A9.84,9.84,0,0,1,116.37,84l12.81-5.86a.68.68,0,0,1,.84.22c2.3,3.09,6.82,3.49,10.2,3.3,5.58-.33,9.91-1.91,12.88-4.7a.71.71,0,0,1,.81-.1l9.87,5.47a12.73,12.73,0,0,1,5.5,6.09l8.31,19.43a14.17,14.17,0,0,1-.65,12.41l-16.2,29A.71.71,0,0,1,160.13,149.61ZM154.45,146l5.37,2.11,15.92-28.49a12.79,12.79,0,0,0,.58-11.19L168,89a11.26,11.26,0,0,0-4.89-5.42l-9.44-5.23C150.48,81.11,146,82.7,140.3,83c-3.56.21-8.3-.23-11-3.42L117,85.25a8.48,8.48,0,0,0-3.18,2.5c-1,1.32-2.53,3.14-4.24,5.22-5.16,6.29-13.8,16.81-13.8,19.24,0,4.33,2.64,22.11,3.78,29.55a2.65,2.65,0,0,0,2.64,2.26h.67a2.67,2.67,0,0,0,2.67-2.67V114.81a.66.66,0,0,1,.15-.42l14.42-18.53a.68.68,0,0,1,.52-.26L157.69,94a.74.74,0,0,1,.66.41l8.83,19.83a.72.72,0,0,1,0,.54Z"/><path class="cls-14" d="M139.35,105c-.07,6.67.72,13.35-.4,20h-1.36a1.22,1.22,0,0,1,0-.27c1.29-7.35.23-15,.43-22.38a152.6,152.6,0,0,1,2-20.24c.14-.89,1.47-.51,1.33.36A149.75,149.75,0,0,0,139.35,105Z"/><ellipse class="cls-5" cx="337.23" cy="475.63" rx="152.45" ry="15.46"/><rect class="cls-11" x="218.39" y="286.79" width="246.83" height="187.88" rx="2.13" ry="2.13"/><path class="cls-15" d="M465.22,288.73v8.14H218.39v-8.14a1.94,1.94,0,0,1,1.94-1.94H463.28A1.94,1.94,0,0,1,465.22,288.73Z"/><circle class="cls-13" cx="224.5" cy="291.83" r="1.55"/><circle class="cls-13" cx="231.79" cy="291.83" r="1.55"/><circle class="cls-13" cx="239.08" cy="291.83" r="1.55"/><path class="cls-3" d="M352,367.22H234.55a2.07,2.07,0,1,1,0-4.14H352a2.07,2.07,0,0,1,0,4.14Z"/><path class="cls-3" d="M352,386.78H234.55a2.07,2.07,0,0,1,0-4.14H352a2.07,2.07,0,0,1,0,4.14Z"/><path class="cls-3" d="M352,406.34H234.55a2.07,2.07,0,0,1,0-4.14H352a2.07,2.07,0,0,1,0,4.14Z"/><path class="cls-3" d="M296,425.9H234.55a2.07,2.07,0,0,1,0-4.14H296a2.07,2.07,0,1,1,0,4.14Z"/><rect class="cls-12" x="231.79" y="311.27" width="40.89" height="10.71" rx="5.35" ry="5.35"/><rect class="cls-12" x="287.97" y="311.27" width="40.89" height="10.71" rx="5.35" ry="5.35"/><rect class="cls-12" x="344.16" y="311.27" width="40.89" height="10.71" rx="5.35" ry="5.35"/><rect class="cls-8" x="231.79" y="439.28" width="46.23" height="15.2" rx="3.92" ry="3.92"/><g class="cls-16"><path class="cls-3" d="M305.87,487c3.11-22.23,19-42.22,40-50.24,9.9-3.79,20.58-5,30.81-7.79a106.68,106.68,0,0,0,54.53-35.44C439.8,383,446.36,370.71,456,361s23.62-16.77,36.77-13.1V487Z"/></g><path class="cls-3" d="M489.17,481.64l-.35,0a2.07,2.07,0,0,1-1.7-2.39l3.8-22.85a2.07,2.07,0,1,1,4.09.68l-3.8,22.85A2.08,2.08,0,0,1,489.17,481.64Z"/><path class="cls-3" d="M521.85,481.64a2.08,2.08,0,0,1-2-1.73L516,457.06a2.07,2.07,0,1,1,4.09-.68l3.8,22.85a2.07,2.07,0,0,1-1.7,2.39Z"/><rect class="cls-9" x="481.33" y="452.57" width="48.35" height="8.29" rx="4.14" ry="4.14"/><path class="cls-2" d="M491,314.88l-6.22,16.17L467,340.5l.9,5.8,19.83-7.21a5.51,5.51,0,0,0,3-2.62l9.88-18.68Z"/><path class="cls-2" d="M460.19,341.76c-2.24,1.31-3.91,4.22-2.69,6.52a4.62,4.62,0,0,0,4.21,2.19,9.7,9.7,0,0,0,4.68-1.59,8.17,8.17,0,0,0,4-4.25c.58-1.9-.42-4.36-2.37-4.69C468,339.94,462.43,340.44,460.19,341.76Z"/><path class="cls-17" d="M483.87,327l6.65,10.68s5.78.37,8.89-12.06,0-12.16,0-12.16L488.1,318.4Z"/><path class="cls-3" d="M430.66,353c-14.49,13.85-6.77,29.62-5.94,44.36s2.24,29.89-2.26,43.94l-41.27-.39c14.66-6.88,21.69-23.47,26.81-38.83q3.72-11.19,7-22.51c2.06-7.14,4.08-14.51,8.58-20.41s12.23-10,19.38-8"/><path class="cls-3" d="M422.46,443.36h0L381.17,443a2.07,2.07,0,0,1-.86-4c13.74-6.46,20.49-21.9,25.72-37.62,2.46-7.37,4.81-14.92,7-22.43l.22-.77c2-7,4.13-14.32,8.71-20.32s13.1-11.14,21.58-8.76a2.07,2.07,0,0,1-1.12,4,14.08,14.08,0,0,0-10.54,1.6c-10,9.78-8.28,20.47-6.43,31.78a101.84,101.84,0,0,1,1.37,10.73l.22,3.72c.82,13.63,1.66,27.73-2.57,41A2.08,2.08,0,0,1,422.46,443.36Zm-34-4.47,32.44.31c3.49-12.11,2.71-25.27,1.94-38l-.22-3.74a97.32,97.32,0,0,0-1.32-10.29c-.88-5.35-1.81-11-1.32-16.75-1.07,2.92-1.94,5.95-2.8,8.94l-.23.77c-2.18,7.56-4.54,15.16-7,22.59C405.28,416.77,399.39,430.65,388.49,438.89Z"/><path class="cls-4" d="M441.39,361a.69.69,0,0,1-.67-.52L435,338.73a.68.68,0,0,1,.16-.64l6.13-6.79a.69.69,0,0,1,1,.92l-5.89,6.52,5.66,21.35a.68.68,0,0,1-.49.84Z"/><rect class="cls-9" x="436.34" y="342.08" width="26.72" height="26.72" rx="1.35" ry="1.35" transform="translate(-115.51 450.86) rotate(-47.91)"/><rect class="cls-3" x="431.19" y="350.09" width="26.72" height="1.38" transform="translate(-113.71 445.74) rotate(-47.93)"/><rect class="cls-3" x="441.64" y="359.54" width="26.72" height="1.38" transform="translate(-117.27 456.62) rotate(-47.93)"/><circle class="cls-18" cx="447.53" cy="353.47" r="1.44"/><path class="cls-4" d="M447.53,354.16a.68.68,0,0,1-.67-.51l-5.75-21.71a.69.69,0,0,1,.49-.85.68.68,0,0,1,.84.49l5.75,21.72a.68.68,0,0,1-.49.84A.52.52,0,0,1,447.53,354.16Z"/><path class="cls-2" d="M22.71,334.23c3.92-4.07,4.16-9.57,5.94-14.5a1.29,1.29,0,0,1,.37-.61,2,2,0,0,1,.95-.32l4.68-.76a2.06,2.06,0,0,1,1.37.08,1.21,1.21,0,0,1,.47.86c.41,2,.32,4.15.92,6.17,1.06,3.54,4.17,6.61,4.57,10.23a1.49,1.49,0,0,1-.21,1.14,2.78,2.78,0,0,1-1.55.73c-3.31.82-6.75,1.64-10.2,1.31s-6.93-2.14-7.59-4.85Z"/><path class="cls-6" d="M20.59,510.84a4.68,4.68,0,0,1,1.28-4.9,59.7,59.7,0,0,1,8.8-6.72c1.8-1.12,3.8-2.2,6.23-.68a5.19,5.19,0,0,1,1.87,2.07c1.31,2.69.39,5.78-1.38,8a20.81,20.81,0,0,1-5.53,4.5,12.39,12.39,0,0,1-4.74,2A6.7,6.7,0,0,1,21.3,513Z"/><path class="cls-6" d="M50.56,505.71A4.67,4.67,0,0,1,53,501.26a59.7,59.7,0,0,1,10.16-4.39c2-.66,4.22-1.22,6.21.84a5.19,5.19,0,0,1,1.32,2.46c.62,2.92-1,5.7-3.28,7.45a20.63,20.63,0,0,1-6.45,3,12.42,12.42,0,0,1-5.09.83,6.73,6.73,0,0,1-5.12-3.54Z"/><path class="cls-7" d="M13.67,407.86c-3.63,3.07,5.44,87.95,6.75,100.08A1.62,1.62,0,0,0,22,509.38h4.9a1.63,1.63,0,0,0,1.62-1.47L36,428.28a1.37,1.37,0,0,1,2.7-.2l7.06,28.81a21.1,21.1,0,0,1,.8,4l4.26,43.71a1.62,1.62,0,0,0,1.61,1.46h3.91a1.61,1.61,0,0,0,1.59-1.31c1.09-5.79,5.35-29.68,5.93-52a173,173,0,0,0-6.23-50.18Z"/><path class="cls-8" d="M100.47,328.59a23.22,23.22,0,0,1,4.59-8.61,9.25,9.25,0,0,1,3.48-2.77,4.25,4.25,0,0,1,4.25.48c1.69,1.44,1.49,4.06,1.14,6.25a9.65,9.65,0,0,1-.65,2.59c-.81,1.79-2.59,2.91-4.27,3.94-1.4.85-2.94,1.74-4.58,1.56s-3.12-1.55-4.34-2.84"/><path class="cls-8" d="M101.13,328.78a23.9,23.9,0,0,1,3.32-6.9,12.17,12.17,0,0,1,3.63-3.69c2.93-1.57,5.41.63,5.38,3.62,0,3.19-1,5.56-3.71,7.38a12.69,12.69,0,0,1-3.59,1.95c-2.62.65-4-.83-5.58-2.44-.62-.64-1.6.34-1,1,3.46,3.58,6.37,3.59,10.49.94a10,10,0,0,0,4.71-10.18c-.45-3.57-3.79-5.2-7-3.63-4.17,2-6.7,7.42-8,11.6a.69.69,0,0,0,1.33.37Z"/><path class="cls-3" d="M23.8,331.17s-.92,8.29,15.66,0c0,0,17.27,3,21.07,5.41l16.58,8.29,22.1-16.58,6.56,4.14-23.58,24.5A7.36,7.36,0,0,1,75,359l-18-4.74a4.73,4.73,0,0,0-5.77,5.8L56,377.68l4,14.84a14.78,14.78,0,0,1-2.4,12.67h0A14.81,14.81,0,0,1,47.83,411c-7.26,1-18.6,2.58-20.46,2.58-2.76,0-18,2.07-17.61,0s0-30.4,0-30.4V357S7.11,336.46,23.8,331.17Z"/><path class="cls-3" d="M13.49,416.59c-3,0-4.36-.4-5.14-1.25a2.48,2.48,0,0,1-.64-2.09c.23-1.61.1-19.27,0-30V357.06c-.2-2-1.83-22.37,15.5-27.87a2.08,2.08,0,0,1,2.69,2.17,1.22,1.22,0,0,0,.48,1.06c.43.28,3,1.47,12.18-3.11a2.1,2.1,0,0,1,1.28-.18c1.8.31,17.54,3.09,21.73,5.64l15.35,7.67L98,326.63a2.06,2.06,0,0,1,2.35-.09l6.56,4.14a2.08,2.08,0,0,1,.39,3.19l-23.59,24.5A9.47,9.47,0,0,1,74.45,361l-18-4.75a2.66,2.66,0,0,0-3.24,3.26L62.05,392a16.78,16.78,0,0,1-2.74,14.44,17,17,0,0,1-11.18,6.65c-12.25,1.72-19.23,2.6-20.76,2.6-.62,0-2.24.14-4,.3C18.87,416.37,15.72,416.59,13.49,416.59Zm-1.69-2.66.1-1.53A93.06,93.06,0,0,0,23,411.84c2.05-.18,3.53-.32,4.33-.32.47,0,3.32-.18,20.18-2.55A12.81,12.81,0,0,0,56,404,12.64,12.64,0,0,0,58,393.06l-8.78-32.51a6.8,6.8,0,0,1,8.3-8.34l18,4.74a5.33,5.33,0,0,0,5.19-1.45l21.82-22.67-3.21-2-21,15.72a2.08,2.08,0,0,1-2.17.2L59.6,338.43l-.19-.1c-2.42-1.55-13-3.83-19.64-5-7.67,3.74-12.84,4.55-15.81,2.47A4.93,4.93,0,0,1,22.34,334c-12.56,5.72-10.56,22.56-10.53,22.74a2.35,2.35,0,0,1,0,.26V383.2C11.88,387.39,12.1,406.57,11.9,412.4Z"/><rect class="cls-8" x="15.05" y="281.24" width="32" height="40.98" rx="15.61" ry="15.61" transform="translate(-40.2 6.89) rotate(-7.71)"/><path class="cls-19" d="M10.79,294.74a19.19,19.19,0,0,1,1.28-7c2.75-7,12.39-6.24,14.64-7.55,6.07-3.53,8.9-3.66,13.74-3.53a4.76,4.76,0,0,1,2.44.54,3.38,3.38,0,0,1,1.26,2.63,9.37,9.37,0,0,1-6,9.12c-2.41.93-5.09.95-7.66,1.37s-5.3,1.44-6.5,3.58-.67,4.56-1.93,6.5c-.4.6-.38-2.35-2.81-1.28-5,2.18,1.56,6.07,2.17,8.08s1.93,6.25,0,7.17C14.13,318,10.79,304.23,10.79,294.74Z"/><path class="cls-19" d="M21.13,295.7c1.15,3.7.5,7.68.24,11.54S22.5,318,25,320.91c2.7,3.12,7.3,2.66,11.43,2.66,10.47,0,12.82-4.19,13.19-6.37S50.12,304,48.21,303c-2.3-1.25-8.24,1.89-10.8,1.36a11,11,0,0,1-7.12-5.72,20.27,20.27,0,0,1-2.1-9.11Z"/><path class="cls-19" d="M13.74,310.29s8.29,13.17,14,12.48V313.9l-9.21-3.61Z"/><path class="cls-8" d="M45.19,294.48l3.9,5a2.65,2.65,0,0,1,.78,1.77,1.73,1.73,0,0,1-1.21,1.41,4.1,4.1,0,0,1-1.94.11,1.2,1.2,0,0,1-.64-.22,1.09,1.09,0,0,1-.31-.54,10.82,10.82,0,0,1-.34-3.68l.07-4.47"/><circle class="cls-9" cx="39.63" cy="296.39" r="1.62"/><path class="cls-9" d="M35.88,294.54a4.21,4.21,0,0,1,3.25-2.16c.89,0,.89-1.41,0-1.38a5.68,5.68,0,0,0-4.45,2.84c-.5.73.7,1.43,1.2.7Z"/><circle class="cls-14" cx="142.68" cy="98.75" r="1.03"/><circle class="cls-14" cx="143.71" cy="88.48" r="1.03"/><circle class="cls-14" cx="142.68" cy="110.91" r="1.03"/><path class="cls-8" d="M479.44,320.39l-12.67,11.83-20.09.74L445,338.57l21,2.18a5.54,5.54,0,0,0,3.84-1l17.05-12.48Z"/><path class="cls-8" d="M440,331.1c-2.59.2-5.35,2.09-5.26,4.69a4.62,4.62,0,0,0,2.82,3.81,9.75,9.75,0,0,0,4.91.62c2-.16,4.07-.64,5.42-2.09s1.54-4.1-.07-5.26C447.79,332.87,442.56,330.9,440,331.1Z"/><path class="cls-14" d="M496.88,364.32,483,403.65a6.93,6.93,0,0,0,.13,5l16,38.71A2.08,2.08,0,0,0,501,448.6h2.15a2.08,2.08,0,0,0,2.08-1.93c.44-6.21,1.21-25.88-5.51-37.28a4.09,4.09,0,0,1,.46-4.9c5.53-5.94,19.64-21.64,21-28.62l5-24.84L520,346.81h-23.1Z"/><path class="cls-7" d="M530.42,369.13a2.13,2.13,0,0,1-.37,1.45,2.18,2.18,0,0,1-1.52.51,153.56,153.56,0,0,1-34.66-1.88,99.07,99.07,0,0,0,.87-16.22c-.54-9.34-3.73-18.38-4.48-27.69a.55.55,0,0,0-1-.26,41.41,41.41,0,0,1-6.56,8,1.51,1.51,0,0,1-2.14-.05l-7-7.54a1.5,1.5,0,0,1-.1-1.94,86.08,86.08,0,0,1,21.78-19.78l1.34-.83a1.5,1.5,0,0,1,2,.43,7.22,7.22,0,0,0,11.39.44,1.56,1.56,0,0,1,2.08-.42,11.6,11.6,0,0,1,2,1.61c3.82,3.87,4.33,9.78,5.65,15.06C521.65,328,530.46,360.44,530.42,369.13Z"/><rect class="cls-8" x="481.01" y="262.29" width="29.3" height="37.52" rx="14.29" ry="14.29" transform="translate(1040.04 449.39) rotate(167.63)"/><path class="cls-8" d="M482.16,281.47l-1.56,5.19a2.41,2.41,0,0,0-.08,1.67,1.52,1.52,0,0,0,1.39.8,3.36,3.36,0,0,0,1.56-.46,1,1,0,0,0,.44-.36,1,1,0,0,0,.08-.53,10,10,0,0,0-.84-3.1l-1.42-3.63"/><circle class="cls-9" cx="487.34" cy="279.91" r="1.48"/><path class="cls-9" d="M490.73,276.06a5.19,5.19,0,0,0-4.63-1c-.84.28-.48,1.62.37,1.34a3.94,3.94,0,0,1,3.57.87c.72.51,1.42-.69.69-1.19Z"/><g class="cls-20"><path class="cls-2" d="M483.78,295.7a10.08,10.08,0,0,0,6-4.3c.49-.75-.7-1.44-1.19-.7a8.64,8.64,0,0,1-5.19,3.67.69.69,0,0,0,.36,1.33Z"/></g><path class="cls-12" d="M486.6,260.36c-3.35,1.57-6.11,4.15-8.89,6.59a1.73,1.73,0,0,0-.71,1,1.42,1.42,0,0,0,.19.75c1.24,2.48,4.58,2.74,7.35,3A35,35,0,0,1,495,274.37a9.87,9.87,0,0,1,2.91,1.74c.7.67,1.46,1.61,2.41,1.41.55-.12.95-.61,1.49-.81a1.9,1.9,0,0,1,2.33,1.65,3.36,3.36,0,0,1-1.36,2.85,2.18,2.18,0,0,0-.7.75,1.5,1.5,0,0,0,.06,1,6.69,6.69,0,0,0,1.21,1.86l6,7.32a.91.91,0,0,0,.34.28.74.74,0,0,0,.71-.28c1.24-1.2,7.2-10.05,4.77-17.82C514.48,272.37,509.42,249.67,486.6,260.36Z"/><path class="cls-12" d="M509.77,293.18a1.36,1.36,0,0,1-.37-.06,1.49,1.49,0,0,1-.65-.51l-5.95-7.31a7.64,7.64,0,0,1-1.31-2.06,2,2,0,0,1-.05-1.55,2.37,2.37,0,0,1,.79-.93,2.84,2.84,0,0,0,1.22-2.31,1.4,1.4,0,0,0-.67-1,.87.87,0,0,0-.74-.12,2.45,2.45,0,0,0-.5.3,2.86,2.86,0,0,1-1.09.54c-1.18.25-2-.6-2.74-1.29l-.29-.29a8.85,8.85,0,0,0-2.7-1.6,34,34,0,0,0-10.25-2.59l-.16,0c-2.83-.26-6.35-.58-7.74-3.35a2.11,2.11,0,0,1-.26-1.12,2.37,2.37,0,0,1,.95-1.5l.76-.67a36,36,0,0,1,8.29-6h0c7-3.29,13.12-3.79,18.11-1.5,3.6,1.65,8.47,5.68,11.23,15.52l.12.41c2.43,7.78-3.27,16.89-4.95,18.51A1.5,1.5,0,0,1,509.77,293.18Zm-7.49-17.25a2.33,2.33,0,0,1,1.22.36,2.77,2.77,0,0,1,1.32,2,4,4,0,0,1-1.61,3.46l-.11.1a1.41,1.41,0,0,0-.39.38.86.86,0,0,0,.07.54,6.48,6.48,0,0,0,1.09,1.67l5.94,7.3.05-.05c.91-.88,7-9.45,4.59-17.11,0-.1-.08-.25-.13-.44-2.61-9.33-7.14-13.12-10.48-14.65-4.61-2.11-10.31-1.61-16.95,1.5l-.29-.62.29.62a35,35,0,0,0-7.95,5.81l-.77.68c-.17.15-.46.41-.48.59a.79.79,0,0,0,.11.37c1.05,2.09,4,2.36,6.63,2.6h.17a35.43,35.43,0,0,1,10.66,2.7,10.08,10.08,0,0,1,3.11,1.87l.32.31c.6.59,1.06,1,1.47.92a1.93,1.93,0,0,0,.59-.32,3.82,3.82,0,0,1,.8-.46A2,2,0,0,1,502.28,275.93Z"/></svg>