<svg height="512pt" viewBox="0 -6 512.001 512" width="512pt" xmlns="http://www.w3.org/2000/svg"><path d="m256 452.421875-69.644531 39.429687-37.269531-70.820312-79.90625-4.488281 6.933593-79.726563-64.796875-46.972656 48.9375-63.324219-29.113281-74.542969 75.402344-26.816406 15.8125-78.453125 77.929687 18.207031 55.714844-57.449218 55.714844 57.449218 77.929687-18.207031 15.8125 78.453125 75.402344 26.816406-29.113281 74.542969 48.9375 63.324219-64.796875 46.972656 6.933593 79.726563-79.902343 4.488281-37.273438 70.820312zm0 0" fill="#937fe6"/><path d="m116.929688 274.035156-109.429688 38.898438v109.574218l136.34375-37.382812 8.125-65.996094zm0 0" fill="#fd6f71"/><path d="m395.070312 274.035156 109.429688 38.898438v109.574218l-136.34375-37.382812-8.125-65.996094zm0 0" fill="#42c3e2"/><path d="m242.832031 258.945312v59.140626c0 24.910156-17.511719 46.375-41.910156 51.386718l-57.078125 15.652344-26.914062-111.089844 19.027343-6.769531c11.261719-4.003906 18.785157-14.65625 18.785157-26.601563v-66.722656c0-9.980468 4.039062-19.011718 10.585937-25.546875 6.535156-6.542969 15.566406-10.585937 25.542969-10.585937 7.78125 0 14.078125 6.300781 14.078125 14.078125v106.609375c0-10.691406 8.855469-19.3125 19.636719-18.929688 10.261718.371094 18.246093 9.117188 18.246093 19.378906zm0 0" fill="#e3b098"/><path d="m269.167969 258.945312v59.140626c0 24.910156 17.511719 46.375 41.914062 51.386718l57.074219 15.652344 26.914062-111.089844-19.027343-6.769531c-11.261719-4.003906-18.785157-14.65625-18.785157-26.601563v-66.722656c0-9.980468-4.039062-19.011718-10.585937-25.546875-6.535156-6.542969-15.5625-10.585937-25.542969-10.585937-7.777344 0-14.078125 6.300781-14.078125 14.078125v106.609375c0-10.691406-8.855469-19.3125-19.636719-18.929688-10.261718.371094-18.246093 9.117188-18.246093 19.378906zm0 0" fill="#e3b098"/><path d="m512 312.914062c0-3.171874-1.996094-6.003906-4.988281-7.066406l-10.5-3.734375s8.539062-6.191406 8.574219-6.214843c3.390624-2.460938 4.082031-7.355469 1.53125-10.65625l-46.339844-59.964844s27.566406-70.585938 27.570312-70.589844c1.539063-3.941406-.527344-8.359375-4.476562-9.796875l-71.402344-25.390625s-14.945312-74.167969-14.972656-74.292969c-.828125-4.113281-4.960938-6.777343-9.058594-5.820312l-73.796875 17.242187s-52.558594-54.195312-52.757813-54.402344c-2.773437-2.855468-7.78125-3.078124-10.769531 0l-52.757812 54.402344-73.796875-17.242187c-4.097656-.957031-8.226563 1.707031-9.054688 5.820312l-14.972656 74.289063s-71.136719 25.296875-71.402344 25.394531c-3.949218 1.402344-5.996094 5.890625-4.476562 9.792969l27.570312 70.59375s-46.265625 59.863281-46.339844 59.960937c-2.558593 3.3125-1.847656 8.210938 1.53125 10.660157l8.574219 6.214843-10.5 3.734375c-2.992187 1.0625-4.988281 3.894532-4.988281 7.066406v109.574219c0 4.832031 4.851562 8.503907 9.484375 7.234375l52.265625-14.332031s-.042969.484375-.042969.488281c-.359375 4.171875 2.878907 7.902344 7.054688 8.136719l75.664062 4.25s35.226563 66.929687 35.292969 67.058594c1.871094 3.550781 6.675781 5.105469 10.332031 3.035156l65.949219-37.335937s65.910156 37.3125 65.949219 37.335937c3.648437 2.0625 8.382812.667969 10.332031-3.035156l35.296875-67.0625s75.609375-4.242188 75.664063-4.246094c4.167968-.234375 7.414062-3.980469 7.050781-8.140625l-.042969-.484375s52.253906 14.328125 52.269531 14.332031c4.699219 1.289063 9.480469-2.371094 9.480469-7.234375zm-497 5.292969 96.597656-34.335937s5.140625 21.222656 5.167969 21.324218c2.253906 9.304688 16.871094 5.941407 14.578125-3.53125l-5.535156-22.847656 12.660156-4.503906c14.21875-5.050781 23.773438-18.582031 23.773438-33.667969v-66.722656c0-7.652344 2.976562-14.839844 8.394531-20.246094 5.398437-5.40625 12.585937-8.386719 20.234375-8.386719 3.628906 0 6.578125 2.953126 6.578125 6.578126v106.617187 44.644531c0 4.144532 3.359375 7.5 7.5 7.5 4.144531 0 7.5-3.355468 7.5-7.5 0 0 0-44.582031 0-44.652344-.019531-6.417968 5.484375-11.660156 11.867187-11.433593 6.074219.21875 11.015625 5.550781 11.015625 11.886719v59.140624c0 21.242188-15.105469 39.761719-35.917969 44.035157-.160156.035156-.320312.070312-.476562.113281l-49.625 13.609375-10.988281-45.359375c-.105469-.433594-.253907-.839844-.425781-1.234375-3.453126-7.917969-16.226563-3.789063-14.152344 4.765625l11.09375 45.796875-119.839844 32.859375zm414.683594 91.546875-67.1875 3.769532c-2.628906.148437-4.988282 1.664062-6.214844 3.996093l-33.671875 63.976563-62.914063-35.617188c-2.292968-1.296875-5.097656-1.296875-7.390624 0l-62.914063 35.617188-33.671875-63.976563c-1.226562-2.332031-3.585938-3.847656-6.214844-3.996093l-67.1875-3.769532 120.355469-33.003906c27.628906-5.796875 47.65625-30.433594 47.65625-58.679688v-59.140624c0-14.554688-11.1875-26.359376-25.480469-26.875-4.363281-.15625-8.589844.734374-12.398437 2.566406v-82.75c0-11.898438-9.679688-21.582032-21.578125-21.582032-11.660156 0-22.617188 4.542969-30.84375 12.78125-8.246094 8.230469-12.789063 19.1875-12.789063 30.851563v66.722656c0 8.75-5.542969 16.601563-13.796875 19.535157l-100.804687 35.839843-10.65625-7.726562 44.207031-57.207031c1.613281-2.082032 2.011719-4.859376 1.050781-7.3125l-26.296875-67.34375 68.117188-24.222657c2.480468-.882812 4.316406-3 4.835937-5.582031l14.285157-70.871094 70.398437 16.449219c2.5625.597656 5.257813-.191406 7.089844-2.082031l50.332031-51.898438 50.332031 51.898438c1.832031 1.890625 4.523438 2.679687 7.089844 2.082031l70.398437-16.449219 14.285157 70.871094c.519531 2.582031 2.355469 4.699219 4.835937 5.582031l68.117188 24.222657-26.300782 67.34375c-.957031 2.453124-.558593 5.230468 1.054688 7.3125l44.207031 57.207031-10.65625 7.726562-100.808593-35.839843c-8.25-2.933594-13.796876-10.785157-13.796876-19.535157v-66.722656c0-11.664063-4.539062-22.621094-12.777343-30.84375-8.234375-8.246094-19.191407-12.789063-30.851563-12.789063-11.898437 0-21.578125 9.683594-21.578125 21.582032v82.75c-3.8125-1.832032-8.042969-2.71875-12.410156-2.566406-14.285156.515624-25.472656 12.320312-25.472656 26.875v59.140624c0 28.25 20.027343 52.882813 47.65625 58.679688zm67.316406 2.902344-119.839844-32.859375 5.714844-23.585937c.976562-4.027344-1.496094-8.082032-5.523438-9.054688-4.03125-.980469-8.078124 1.496094-9.054687 5.523438l-5.609375 23.148437-49.621094-13.605469c-.160156-.042968-.316406-.082031-.476562-.117187-20.8125-4.269531-35.917969-22.789063-35.917969-44.035157v-59.140624c0-6.332032 4.941406-11.667969 11.007813-11.886719 3.15625-.109375 6.121093 1.027343 8.375 3.203125 2.253906 2.175781 3.496093 5.101562 3.496093 8.234375v44.652343c0 4.140626 3.359375 7.5 7.5 7.5s7.5-3.359374 7.5-7.5v-44.652343-106.613281c0-3.625 2.953125-6.578126 6.578125-6.578126 7.652344 0 14.839844 2.980469 20.246094 8.394532 5.40625 5.398437 8.386719 12.585937 8.386719 20.238281v66.722656c0 15.085938 9.550781 28.617188 23.769531 33.667969l12.660156 4.503906-10.875 44.902344c-.976562 4.023438 1.496094 8.078125 5.523438 9.054688 3.957031.960937 8.09375-1.566407 9.054687-5.523438l10.507813-43.378906 96.597656 34.335937zm0 0"/></svg>