<svg height="480pt" viewBox="0 0 480 480" width="480pt" xmlns="http://www.w3.org/2000/svg"><path d="m120 432h96c26.511719 0 48 21.488281 48 48h-192c0-26.511719 21.488281-48 48-48zm0 0" fill="#52575f"/><path d="m192 448h-96c-4.648438 0-9.136719.695312-13.382812 1.929688-6.632813 8.230468-10.617188 18.679687-10.617188 30.070312h165.207031c-6.589843-18.632812-24.320312-32-45.207031-32zm0 0" fill="#666d77"/><path d="m144 368h48v64h-48zm0 0" fill="#52575f"/><path d="m144 368h32v64h-32zm0 0" fill="#666d77"/><path d="m0 160h336v208h-336zm0 0" fill="#666d77"/><path d="m32 192h272v144h-272zm0 0" fill="#cdd1d8"/><path d="m208 128h272v176h-272zm0 0" fill="#5789d6"/><path d="m208 128 136 112 136-112" fill="#699ce6"/><path d="m448 304-104-104-104 104" fill="#699ce6"/><path d="m344 208-96 96h192zm0 0" fill="#5789d6"/><g fill="#bc8f6f"><path d="m128.636719 228.839844 72.03125-167.988282 14.703125 6.304688-72.03125 167.988281zm0 0"/><path d="m16.84375 43.582031 14.308594-7.15625 96 191.996094-14.3125 7.152344zm0 0"/><path d="m219.199219 70.398438 9.597656-12.792969 96 72-9.597656 12.792969zm0 0"/><path d="m353.886719 130.832031 87.980469-104.015625 12.222656 10.339844-87.980469 104.011719zm0 0"/><path d="m30.917969 31.929688 2.160156-15.851563 176 24-2.164063 15.851563zm0 0"/></g><path d="m208 128 136 112 136-112" fill="#699ce6"/><path d="m470.289062 128h-252.578124l126.289062 104zm0 0" fill="#5789d6"/><path d="m48 24c0 13.253906-10.746094 24-24 24s-24-10.746094-24-24 10.746094-24 24-24 24 10.746094 24 24zm0 0" fill="#5789d6"/><path d="m480 24c0 13.253906-10.746094 24-24 24s-24-10.746094-24-24 10.746094-24 24-24 24 10.746094 24 24zm0 0" fill="#eebc5a"/><path d="m240 56c0 13.253906-10.746094 24-24 24s-24-10.746094-24-24 10.746094-24 24-24 24 10.746094 24 24zm0 0" fill="#bf4653"/><path d="m152 248c0 13.253906-10.746094 24-24 24s-24-10.746094-24-24 10.746094-24 24-24 24 10.746094 24 24zm0 0" fill="#5da351"/></svg>