<?xml version="1.0" encoding="UTF-8"?>
<svg viewBox="0 0 124 58" version="1.1" xmlns="http://www.w3.org/2000/svg" xmlns:xlink="http://www.w3.org/1999/xlink">
    <!-- Generator: Sketch 44.1 (41455) - http://www.bohemiancoding.com/sketch -->
    <title>404</title>
    <desc>Created with Sketch.</desc>
    <defs>
        <path d="M0.0617777778,27.7786561 C0.0617777778,43.0593518 12.4982222,55.4466403 27.8393333,55.4466403 C43.1806667,55.4466403 55.6173333,43.0593518 55.6173333,27.7786561 C55.6173333,12.4979605 43.1806667,0.110671937 27.8393333,0.110671937 C12.4982222,0.110671937 0.0617777778,12.4979605 0.0617777778,27.7786561 Z" id="path-1"></path>
        <path d="M0.0617777778,27.7786561 C0.0617777778,43.0593518 12.4982222,55.4466403 27.8393333,55.4466403 L27.8393333,55.4466403 C43.1806667,55.4466403 55.6173333,43.0593518 55.6173333,27.7786561 L55.6173333,27.7786561 C55.6173333,12.4979605 43.1806667,0.110671937 27.8393333,0.110671937 L27.8393333,0.110671937 C12.4982222,0.110671937 0.0617777778,12.4979605 0.0617777778,27.7786561 L0.0617777778,27.7786561 Z" id="path-3"></path>
    </defs>
    <g id="Homepage" stroke="none" stroke-width="1" fill="none" fill-rule="evenodd">
        <g id="iPhone-SE" transform="translate(-98.000000, -122.000000)">
            <g id="404-copy" transform="translate(98.000000, 123.000000)">
                <path d="M40.4666667,41.9889328 L32.7333333,41.9889328 L32.7333333,50.687747 L23.8666667,50.687747 L23.8666667,41.9889328 L0,41.9889328 L0,35.6806324 L21,5.53359684 L32.7333333,5.53359684 L32.7333333,34.286166 L40.4666667,34.286166 L40.4666667,41.9889328 Z M9.53333333,34.286166 L23.8666667,34.286166 L23.8666667,13.9003953 L9.53333333,34.286166 Z" id="404" fill="#323C46"></path>
                <g id="Page-1" transform="translate(30.000000, 0.000000)">
                    <g id="Group-44" transform="translate(4.444444, 0.442688)">
                        <g id="Group-3">
                            <mask id="mask-2" fill="white">
                                <use xlink:href="#path-1"></use>
                            </mask>
                            <g id="Clip-2"></g>
                            <polygon id="Fill-1" fill="#9CAAB5" mask="url(#mask-2)" points="-4.82711111 59.3201581 61.1728889 59.3201581 61.1728889 -6.41897233 -4.82711111 -6.41897233"></polygon>
                        </g>
                        <path d="M39.1858667,34.7074277 L27.8394222,34.7074277 L27.7283111,34.7074277 L27.5992,34.7074277 L27.4880889,34.7074277 L16.1418667,34.7074277 C13.3974222,34.7074277 11.0743111,35.9686451 11.1727556,39.656898 C11.2283111,41.7350957 11.5338667,45.6916174 11.5338667,45.6916174 L16.7283111,45.514985 L38.5992,45.514985 L43.7936444,45.6916174 C43.7936444,45.6916174 44.0992,41.7350957 44.1547556,39.656898 C44.2534222,35.9686451 41.9303111,34.7074277 39.1858667,34.7074277" id="Fill-4" fill="#647D91"></path>
                        <path d="M39.1858667,34.7074277 L27.8394222,34.7074277 L27.7283111,34.7074277 L27.5992,34.7074277 L27.4880889,34.7074277 L16.1418667,34.7074277 C13.3974222,34.7074277 11.0743111,35.9686451 11.1727556,39.656898 C11.2283111,41.7350957 11.5338667,45.6916174 11.5338667,45.6916174 L16.7283111,45.514985 L38.5992,45.514985 L43.7936444,45.6916174 C43.7936444,45.6916174 44.0992,41.7350957 44.1547556,39.656898 C44.2534222,35.9686451 41.9303111,34.7074277 39.1858667,34.7074277 Z" id="Stroke-6" stroke="#222C35" stroke-width="0.888888889" stroke-linecap="round"></path>
                        <mask id="mask-4" fill="white">
                            <use xlink:href="#path-3"></use>
                        </mask>
                        <g id="Clip-9"></g>
                        <polygon id="Fill-8" fill="#647D91" mask="url(#mask-4)" points="16.7284444 56.1232885 38.9506667 56.1232885 38.9506667 44.2253913 16.7284444 44.2253913"></polygon>
                        <path d="M30.6172889,38.6916174 C30.6172889,38.6916174 29.5617333,39.9096727 27.8301778,39.9096727 C26.2284,39.9096727 25.0617333,38.8299573 25.0617333,38.8299573 L24.9506222,37.7885344 L24.9506222,36.2760917 L27.8301778,36.2760917 L30.7097333,36.2760917 L30.7097333,37.7885344 L30.6172889,38.6916174 Z" id="Fill-10" fill="#C38778" mask="url(#mask-4)"></path>
                        <path d="M29.6779556,39.3501375 L27.9228444,40.4070545 L26.0010667,39.3501375 C25.0895111,38.7746435 24.5061778,38.2874656 24.5061778,37.573853 L24.5061778,33.4225486 L27.8395111,33.4225486 L31.1728444,33.4225486 L31.1728444,37.573853 C31.1728444,38.2874656 30.4228444,38.8023115 29.6779556,39.3501375 Z" id="Stroke-11" stroke="#222C35" stroke-width="0.888888889" mask="url(#mask-4)"></path>
                        <path d="M32.3477556,37.8035415 C32.3477556,39.0913202 31.5893111,40.2938814 30.3257556,41.0094862 L27.8393111,42.4176759 L25.3528667,41.0094862 C24.0897556,40.2938814 23.3313111,39.0913202 23.3313111,37.8035415" id="Stroke-12" stroke="#222C35" stroke-width="0.5" stroke-linecap="round" mask="url(#mask-4)"></path>
                        <path d="M33.7247111,48.8557059 L33.7247111,48.8557059 C32.8244889,48.8557059 32.0949333,48.129034 32.0949333,47.2325913 L32.0949333,45.6092553 L35.3542667,45.6092553 L35.3542667,47.2325913 C35.3542667,48.129034 34.6247111,48.8557059 33.7247111,48.8557059" id="Fill-13" fill="#FFFFFF" mask="url(#mask-4)"></path>
                        <path d="M31.6730667,52.2140237 L36.1312889,52.2463399 L36.2239556,37.2084585 C36.2364,35.1957787 34.7392889,33.5531858 32.8799556,33.5396838 L31.7884,33.5319368 L31.6730667,52.2140237 Z" id="Fill-14" fill="#9CAAB5" mask="url(#mask-4)"></path>
                        <path d="M31.6730667,52.2140237 L36.1312889,52.2463399 L36.2239556,37.2084585 C36.2364,35.1957787 34.7392889,33.5531858 32.8799556,33.5396838 L31.7884,33.5319368 L31.6730667,52.2140237 Z" id="Stroke-15" stroke="#222C35" stroke-width="0.888888889" stroke-linecap="round" stroke-linejoin="round" mask="url(#mask-4)"></path>
                        <path d="M24.0560889,52.2406071 L19.5978667,52.2191368 L19.6600889,37.181034 C19.6683111,35.1683542 21.1823111,33.5439115 23.0418667,33.5529866 L24.1332,33.5582988 L24.0560889,52.2406071 Z" id="Fill-16" fill="#9CAAB5" mask="url(#mask-4)"></path>
                        <path d="M24.0560889,52.2406071 L19.5978667,52.2191368 L19.6600889,37.181034 C19.6683111,35.1683542 21.1823111,33.5439115 23.0418667,33.5529866 L24.1332,33.5582988 L24.0560889,52.2406071 Z" id="Stroke-17" stroke="#222C35" stroke-width="0.888888889" stroke-linecap="round" stroke-linejoin="round" mask="url(#mask-4)"></path>
                        <g id="Group-20" mask="url(#mask-4)">
                            <g transform="translate(20.666667, 49.359684)"></g>
                        </g>
                        <g id="Group-23" mask="url(#mask-4)">
                            <g transform="translate(21.777778, 49.581028)"></g>
                        </g>
                        <g id="Group-26" mask="url(#mask-4)">
                            <g transform="translate(22.666667, 49.581028)"></g>
                        </g>
                        <g id="Group-29" mask="url(#mask-4)">
                            <g transform="translate(32.666667, 49.359684)"></g>
                        </g>
                        <g id="Group-32" mask="url(#mask-4)">
                            <g transform="translate(33.777778, 49.581028)"></g>
                        </g>
                        <g id="Group-35" mask="url(#mask-4)">
                            <g transform="translate(34.888889, 49.581028)"></g>
                        </g>
                        <polygon id="Fill-36" fill="#FFFFFF" mask="url(#mask-4)" points="23.6312889 41.8347447 20.0941778 41.8177012 20.1106222 37.8687051 23.6477333 37.8857486"></polygon>
                        <polygon id="Fill-37" fill="#FFFFFF" mask="url(#mask-4)" points="23.6016667 49.0110229 20.0645556 48.9939794 20.081 45.0449834 23.6178889 45.0620269"></polygon>
                        <polygon id="Fill-38" fill="#FFFFFF" mask="url(#mask-4)" points="35.7175556 41.8393929 32.1806667 41.813717 32.2048889 37.8649423 35.7417778 37.8903968"></polygon>
                        <polygon id="Fill-39" fill="#FFFFFF" mask="url(#mask-4)" points="35.6732889 49.0155605 32.1364 48.9898846 32.1606222 45.0411099 35.6975111 45.0665644"></polygon>
                        <path d="M12.0338444,45.1935937 C12.0338444,45.1935937 11.6945111,40.3791431 11.6727333,39.4663209 C11.6449556,38.297404 12.0529556,35.471064 15.3047333,35.2745107 C16.9087333,35.1777834 17.8671778,35.2331194 17.8671778,35.2331194 C17.8671778,35.2331194 15.9227333,35.814147 15.1727333,36.2291668 C14.4227333,36.6441866 13.1449556,37.8892458 13.2282889,39.5216569 C13.3116222,41.154068 13.6449556,45.1105897 13.6449556,45.1105897 L12.0338444,45.1935937 Z" id="Fill-42" fill="#FFFFFF" mask="url(#mask-4)"></path>
                        <path d="M43.3382,45.1935937 C43.3382,45.1935937 43.6775333,40.3791431 43.6993111,39.4663209 C43.7270889,38.297404 43.3188667,35.471064 40.0673111,35.2745107 C38.4633111,35.1777834 37.5048667,35.2331194 37.5048667,35.2331194 C37.5048667,35.2331194 39.4493111,35.814147 40.1993111,36.2291668 C40.9493111,36.6441866 42.2270889,37.8892458 42.1437556,39.5216569 C42.0604222,41.154068 41.7270889,45.1105897 41.7270889,45.1105897 L43.3382,45.1935937 Z" id="Fill-43" fill="#FFFFFF" mask="url(#mask-4)"></path>
                    </g>
                    <g id="Group-135">
                        <path d="M60.0617333,28.2213439 C60.0617333,43.5020395 47.6250667,55.8893281 32.2839556,55.8893281 C16.9426222,55.8893281 4.50617778,43.5020395 4.50617778,28.2213439 C4.50617778,12.9406482 16.9426222,0.553359684 32.2839556,0.553359684 C47.6250667,0.553359684 60.0617333,12.9406482 60.0617333,28.2213439 Z" id="Stroke-45" stroke="#222C35" stroke-width="0.888888889"></path>
                        <path d="M32.2838444,37.7516585 C25.9120667,37.7516585 20.7282889,32.58837 20.7282889,26.2417771 L20.7282889,16.7003067 C20.7282889,11.953366 24.6056222,8.09157945 29.3714,8.09157945 L35.1965111,8.09157945 C39.9622889,8.09157945 43.8394,11.953366 43.8394,16.7003067 L43.8394,26.2417771 C43.8394,32.58837 38.6556222,37.7516585 32.2838444,37.7516585" id="Fill-47" fill="#DFA88E"></path>
                        <path d="M35.1964889,7.6488917 L29.3713778,7.6488917 C24.3604889,7.6488917 20.2838222,11.7094451 20.2838222,16.7005281 L20.2838222,26.2417771 C20.2838222,32.8325123 25.6671556,38.1943462 32.2838222,38.1943462 C38.9007111,38.1943462 44.2840444,32.8325123 44.2840444,26.2417771 L44.2840444,16.7005281 C44.2840444,11.7094451 40.2073778,7.6488917 35.1964889,7.6488917 M35.1964889,8.53426719 C39.7244889,8.53426719 43.3951556,12.1904253 43.3951556,16.7005281 L43.3951556,26.2417771 C43.3951556,32.3539668 38.4204889,37.3089708 32.2840444,37.3089708 L32.2838222,37.3089708 C26.1473778,37.3089708 21.1727111,32.3539668 21.1727111,26.2417771 L21.1727111,16.7005281 C21.1727111,12.1904253 24.8433778,8.53426719 29.3713778,8.53426719 L35.1964889,8.53426719" id="Fill-49" fill="#222C35"></path>
                        <path d="M39.9135111,23.1429628 C39.9135111,21.3093502 41.4059556,19.8228047 43.2468444,19.8228047 C45.0877333,19.8228047 46.5801778,21.0880063 46.5801778,22.921619 C46.5801778,24.7552316 45.0877333,26.4631209 43.2468444,26.4631209 C41.4059556,26.4631209 39.9135111,24.9765755 39.9135111,23.1429628" id="Fill-51" fill="#DFA88E"></path>
                        <path d="M39.9135111,23.1429628 C39.9135111,21.3093502 41.4059556,19.8228047 43.2468444,19.8228047 C45.0877333,19.8228047 46.5801778,21.0880063 46.5801778,22.921619 C46.5801778,24.7552316 45.0877333,26.4631209 43.2468444,26.4631209 C41.4059556,26.4631209 39.9135111,24.9765755 39.9135111,23.1429628 Z" id="Stroke-53" stroke="#222C35" stroke-width="0.888888889"></path>
                        <path d="M17.8394,23.1429628 C17.8394,21.3093502 19.3318444,19.6014609 21.1727333,19.6014609 C23.0138444,19.6014609 24.5060667,21.0880063 24.5060667,22.921619 C24.5060667,24.7552316 23.0138444,26.2417771 21.1727333,26.2417771 C19.3318444,26.2417771 17.8394,24.9765755 17.8394,23.1429628" id="Fill-55" fill="#DFA88E"></path>
                        <path d="M17.8394,23.1429628 C17.8394,21.3093502 19.3318444,19.6014609 21.1727333,19.6014609 C23.0138444,19.6014609 24.5060667,21.0880063 24.5060667,22.921619 C24.5060667,24.7552316 23.0138444,26.2417771 21.1727333,26.2417771 C19.3318444,26.2417771 17.8394,24.9765755 17.8394,23.1429628 Z" id="Stroke-57" stroke="#222C35" stroke-width="0.888888889"></path>
                        <path d="M32.2838444,37.3089708 L32.2838444,37.3089708 C26.1474,37.3089708 21.1727333,32.3539668 21.1727333,26.2417771 L21.1727333,16.7003067 C21.1727333,12.1904253 24.8434,8.53426719 29.3714,8.53426719 L35.1965111,8.53426719 C39.7245111,8.53426719 43.3949556,12.1904253 43.3949556,16.7003067 L43.3949556,26.2417771 C43.3949556,32.3539668 38.4205111,37.3089708 32.2838444,37.3089708" id="Fill-59" fill="#BC8D79"></path>
                        <path d="M32.2838444,35.4449676 L32.2838444,35.4449676 C26.9425111,35.4449676 22.6125111,31.1320822 22.6125111,25.8116395 L22.6125111,10.3983589 L41.9554,10.3983589 L41.9554,25.8116395 C41.9554,31.1320822 37.6254,35.4449676 32.2838444,35.4449676" id="Fill-61" fill="#DFA88E"></path>
                        <path d="M31.3579556,36.0354909 L32.6912889,36.3675067 C36.8395111,36.3675067 41.3544,32.2341312 40.9759556,31.4687241 C39.0650667,27.6029534 35.8855111,25.4260364 32.2839556,25.4260364 C28.5957333,25.4260364 25.3501778,27.7089771 23.4561778,31.7502735 C23.1344,32.4368822 27.2097333,36.0354909 31.3579556,36.0354909" id="Fill-63" fill="#BC8D79"></path>
                        <g id="Group-68" transform="translate(30.444444, 25.011858)">
                            <path d="M0.198133333,0.0739288538 C0.437022222,0.747256917 1.08168889,1.23000791 1.83946667,1.23000791 C2.59724444,1.23000791 3.24168889,0.747256917 3.4808,0.0739288538" id="Fill-65" fill="#DFA88E"></path>
                            <path d="M0.198133333,0.0739288538 C0.437022222,0.747256917 1.08168889,1.23000791 1.83946667,1.23000791 C2.59724444,1.23000791 3.24168889,0.747256917 3.4808,0.0739288538" id="Stroke-67" stroke="#222C35" stroke-width="0.5" stroke-linecap="round"></path>
                        </g>
                        <path d="M24.5060667,10.5734862 C30.3518444,13.2378024 35.4691778,14.0999368 37.3838444,13.0655968 C38.1100667,12.6733755 39.7842889,11.5885692 40.3147333,10.5996047 C40.7162889,9.85101976 23.8467333,10.2729012 24.5060667,10.5734862" id="Fill-69" fill="#C38778"></path>
                        <path d="M43.3950667,21.3181818 L41.3768444,21.3181818 L41.3768444,12.9768379 C41.3768444,11.5925534 40.1310667,10.5389565 38.7597333,10.7645059 C37.1497333,11.0292332 34.1079556,11.3010435 32.2839556,11.3010435 C26.7284,11.3010435 33.8797333,3.07457708 33.8797333,3.07457708 L41.5650667,6.82701976 C43.1539556,7.74094862 44.2792889,8.93310672 44.1688444,10.4816285 L43.3950667,21.3181818 Z" id="Fill-71" fill="#4C261F"></path>
                        <path d="M43.3950667,21.3181818 L41.3768444,21.3181818 L41.3768444,12.9768379 C41.3768444,11.5925534 40.1310667,10.5389565 38.7597333,10.7645059 C37.1497333,11.0292332 34.1079556,11.3010435 32.2839556,11.3010435 C26.7284,11.3010435 33.8797333,3.07457708 33.8797333,3.07457708 L41.5650667,6.82701976 C43.1539556,7.74094862 44.2792889,8.93310672 44.1688444,10.4816285 L43.3950667,21.3181818 Z" id="Stroke-73" stroke="#222C35" stroke-width="0.888888889"></path>
                        <path d="M21.1727333,21.3181818 L23.1909556,21.3181818 L23.1909556,12.9768379 C23.1909556,11.5925534 24.4367333,10.5389565 25.8082889,10.7645059 C27.4180667,11.0292332 30.4598444,11.3010435 32.2838444,11.3010435 C37.8394,11.3010435 39.0069556,0.197106719 39.0069556,0.197106719 L22.7347333,7.0532332 C21.2558444,7.5103083 20.2876222,8.92159684 20.3974,10.4599368 L21.1727333,21.3181818 Z" id="Fill-75" fill="#703D32"></path>
                        <path d="M21.1727333,21.3181818 L23.1909556,21.3181818 L23.1909556,12.9768379 C23.1909556,11.5925534 24.4367333,10.5389565 25.8082889,10.7645059 C27.4180667,11.0292332 30.4598444,11.3010435 32.2838444,11.3010435 C37.8394,11.3010435 39.0069556,0.197106719 39.0069556,0.197106719 L22.7347333,7.0532332 C21.2558444,7.5103083 20.2876222,8.92159684 20.3974,10.4599368 L21.1727333,21.3181818 Z" id="Stroke-77" stroke="#222C35" stroke-width="0.888888889"></path>
                        <path d="M21.6469111,11.1765597 C21.5369111,9.63799842 22.2215778,8.62225138 23.7004667,8.16539763 L38.2140222,2.27676522 C38.3240222,1.73823557 38.4051333,1.26721581 38.4609111,0.90775336 L22.8875778,7.46949249 L22.8664667,7.47613281 C21.5780222,7.87433043 20.7449111,9.08818024 20.8406889,10.4286387 L21.5866889,20.8754055 L22.2811333,20.060196 L21.6469111,11.1765597 Z" id="Fill-79" fill="#B0693D"></path>
                        <path d="M41.759,7.47608854 C41.759,7.47608854 41.743,7.471883 41.7378889,7.46966957 C41.2194444,7.21578814 40.633,6.92560632 39.9992222,6.60996996 C39.8425556,6.90037312 39.6703333,7.17948775 39.4918889,7.45284743 L40.925,8.16535336 C41.9987778,8.66470514 43.7454444,9.92857866 43.6356667,11.4671399 L43.6541111,10.3971636 C43.7501111,9.05692648 43.0616667,8.16535336 41.759,7.47608854" id="Fill-81" fill="#B0693D"></path>
                        <path d="M36.9030889,1.08336759 C36.9030889,1.08336759 34.5126444,11.6228775 29.3984222,11.1669091" id="Stroke-83" stroke="#222C35" stroke-width="0.5"></path>
                        <path d="M33.1507111,2.66455968 C33.1507111,2.66455968 31.4624889,11.5904727 26.8360444,10.910947" id="Stroke-85" stroke="#222C35" stroke-width="0.5"></path>
                        <path d="M27.1988889,25.3818119 C27.1988889,26.1011794 26.6133333,26.6844206 25.8911111,26.6844206 C25.1686667,26.6844206 24.5831111,26.1011794 24.5831111,25.3818119 C24.5831111,24.6624443 25.1686667,24.0792032 25.8911111,24.0792032 C26.6133333,24.0792032 27.1988889,24.6624443 27.1988889,25.3818119" id="Fill-87" fill="#C38778"></path>
                        <path d="M39.8703333,25.3818119 C39.8703333,26.1011794 39.2847778,26.6844206 38.5625556,26.6844206 C37.8401111,26.6844206 37.2545556,26.1011794 37.2545556,25.3818119 C37.2545556,24.6624443 37.8401111,24.0792032 38.5625556,24.0792032 C39.2847778,24.0792032 39.8703333,24.6624443 39.8703333,25.3818119" id="Fill-89" fill="#C38778"></path>
                        <path d="M37.9497556,19.5372711 C37.9497556,20.1129866 37.4813111,20.5798008 36.9030889,20.5798008 C36.3250889,20.5798008 35.8564222,20.1129866 35.8564222,19.5372711 C35.8564222,18.9615557 36.3250889,18.4947415 36.9030889,18.4947415 C37.4813111,18.4947415 37.9497556,18.9615557 37.9497556,19.5372711" id="Fill-91" fill="#222C35"></path>
                        <path d="M29.1257556,19.5372711 C29.1257556,20.1129866 28.6570889,20.5798008 28.0790889,20.5798008 C27.5008667,20.5798008 27.0324222,20.1129866 27.0324222,19.5372711 C27.0324222,18.9615557 27.5008667,18.4947415 28.0790889,18.4947415 C28.6570889,18.4947415 29.1257556,18.9615557 29.1257556,19.5372711" id="Fill-93" fill="#222C35"></path>
                        <path d="M26.4525778,15.0609012 C27.6172444,15.0631146 29.1543556,15.7824822 29.9299111,16.9930119" id="Stroke-95" stroke="#222C35" stroke-width="0.888888889" stroke-linecap="round"></path>
                        <path d="M35.2535778,17.3636079 C36.0086889,16.4855368 37.4182444,16.2885407 38.3671333,17.3441296" id="Stroke-97" stroke="#222C35" stroke-width="0.888888889" stroke-linecap="round"></path>
                        <path d="M30.7331778,32.0833075 C30.7331778,32.0833075 31.2080667,30.4216791 32.3205111,30.5500585 C33.7069556,30.7100901 33.6067333,32.982185 33.6067333,32.982185 L30.7331778,32.0833075 Z" id="Fill-99" fill="#222C35"></path>
                        <path d="M30.7331778,32.0833075 C30.7331778,32.0833075 31.2080667,30.4216791 32.3205111,30.5500585 C33.7069556,30.7100901 33.6067333,32.982185 33.6067333,32.982185 L30.7331778,32.0833075 Z" id="Stroke-101" stroke="#222C35" stroke-width="0.888888889" stroke-linecap="round"></path>
                        <path d="M1.07682222,44.4742261 C0.855933333,43.8770403 1.67193333,43.2291668 2.70771111,43.2291668 C3.74348889,43.2291668 4.21571111,43.1184949 5.39615556,43.2291668 C6.57682222,43.3398387 10.0212667,43.5950482 10.7990444,43.8272379 C11.5768222,44.0592063 17.2063778,48.4677123 17.2063778,48.4677123 L16.9657111,46.1896411 L21.4379333,45.8576253 C21.4379333,45.8576253 21.4657111,50.2014988 21.4934889,52.0552538 C21.5226,53.9959968 18.2043778,55.6627162 15.9472667,53.4846925 C14.7619333,52.34123 12.5583778,50.9208664 12.5583778,50.9208664 C12.5583778,50.9208664 9.63237778,53.0789692 9.29904444,53.1343051 C8.96571111,53.1896411 6.52793333,53.571902 6.39615556,53.5769929 C6.04904444,53.5909375 5.70171111,53.1205818 5.70171111,53.1205818 C5.70171111,53.1205818 3.8546,53.0929138 3.45193333,53.0652458 C3.04904444,53.0375779 2.52126667,52.6639494 2.52126667,52.6639494 C2.52126667,52.6639494 1.84882222,52.7425265 1.43793333,52.760898 C0.507266667,52.8022893 0.479488889,51.9445818 0.479488889,51.9445818 C0.479488889,51.9445818 0.146377778,51.8201866 0.0352666667,51.4049455 C-0.0758444444,50.9899257 0.0212666667,50.491902 1.14615556,49.8832063 C2.27126667,49.2745107 5.03504444,47.559317 5.3406,47.3516964 C5.64615556,47.1442972 6.42393333,46.410985 6.43793333,46.355649 C6.45171111,46.300313 7.00726667,45.5532775 5.97948889,45.5256095 C4.95171111,45.4979415 3.67415556,45.7330087 3.03526667,45.6362814 C2.39615556,45.5393328 1.36837778,45.2628743 1.07682222,44.4742261" id="Fill-103" fill="#DFA88E"></path>
                        <path d="M1.07682222,44.4742261 C0.855933333,43.8770403 1.67193333,43.2291668 2.70771111,43.2291668 C3.74348889,43.2291668 4.21571111,43.1184949 5.39615556,43.2291668 C6.57682222,43.3398387 10.0212667,43.5950482 10.7990444,43.8272379 C11.5768222,44.0592063 17.2063778,48.4677123 17.2063778,48.4677123 L16.9657111,46.1896411 L21.4379333,45.8576253 C21.4379333,45.8576253 21.4657111,50.2014988 21.4934889,52.0552538 C21.5226,53.9959968 18.2043778,55.6627162 15.9472667,53.4846925 C14.7619333,52.34123 12.5583778,50.9208664 12.5583778,50.9208664 C12.5583778,50.9208664 9.63237778,53.0789692 9.29904444,53.1343051 C8.96571111,53.1896411 6.52793333,53.571902 6.39615556,53.5769929 C6.04904444,53.5909375 5.70171111,53.1205818 5.70171111,53.1205818 C5.70171111,53.1205818 3.8546,53.0929138 3.45193333,53.0652458 C3.04904444,53.0375779 2.52126667,52.6639494 2.52126667,52.6639494 C2.52126667,52.6639494 1.84882222,52.7425265 1.43793333,52.760898 C0.507266667,52.8022893 0.479488889,51.9445818 0.479488889,51.9445818 C0.479488889,51.9445818 0.146377778,51.8201866 0.0352666667,51.4049455 C-0.0758444444,50.9899257 0.0212666667,50.491902 1.14615556,49.8832063 C2.27126667,49.2745107 5.03504444,47.559317 5.3406,47.3516964 C5.64615556,47.1442972 6.42393333,46.410985 6.43793333,46.355649 C6.45171111,46.300313 7.00726667,45.5532775 5.97948889,45.5256095 C4.95171111,45.4979415 3.67415556,45.7330087 3.03526667,45.6362814 C2.39615556,45.5393328 1.36837778,45.2628743 1.07682222,44.4742261 Z" id="Stroke-105" stroke="#222C35" stroke-width="0.888888889" stroke-linecap="round" stroke-linejoin="round"></path>
                        <path d="M5.18793333,49.2977518 C5.18793333,49.2977518 3.68793333,50.4414356 3.52126667,50.4781787 C3.3546,50.5151431 1.68793333,50.7734514 1.4286,50.9208664 C1.16948889,51.0685028 0.743488889,51.2805502 0.660155556,51.9722498" id="Stroke-107" stroke="#222C35" stroke-width="0.5" stroke-linecap="round"></path>
                        <path d="M6.74348889,50.3121708 L5.48415556,51.3819257 C5.48415556,51.3819257 2.98415556,51.4188901 2.68793333,51.6218625 C2.39171111,51.8246134 2.27126667,52.3319336 2.78526667,52.5948901" id="Stroke-109" stroke="#222C35" stroke-width="0.5" stroke-linecap="round"></path>
                        <path d="M8.44715556,51.1053565 L7.63226667,51.8984316 C7.63226667,51.8984316 6.42871111,52.0091036 6.15093333,52.2304474 C5.87315556,52.4517913 5.8176,52.9314435 6.02115556,53.1711589" id="Stroke-111" stroke="#222C35" stroke-width="0.5" stroke-linecap="round"></path>
                        <path d="M13.4240444,49.4959652 C13.0167111,50.1969613 12.5722667,50.694985 11.7573778,51.2667162" id="Stroke-113" stroke="#222C35" stroke-width="0.5" stroke-linecap="round"></path>
                        <g id="Group-118" transform="translate(16.222222, 47.810277)">
                            <path d="M0.0490444444,0.163949407 C1.18793333,1.21533281 2.25748889,1.67174387 2.57682222,2.61267668" id="Fill-115" fill="#DFA88E"></path>
                            <path d="M0.0490444444,0.163949407 C1.18793333,1.21533281 2.25748889,1.67174387 2.57682222,2.61267668" id="Stroke-117" stroke="#222C35" stroke-width="0.5" stroke-linecap="round" stroke-linejoin="round"></path>
                        </g>
                        <path d="M63.4909778,44.4742261 C63.7118667,43.8770403 62.8958667,43.2291668 61.8600889,43.2291668 C60.8243111,43.2291668 60.3520889,43.1184949 59.1716444,43.2291668 C57.9909778,43.3398387 54.5465333,43.5950482 53.7687556,43.8272379 C52.9909778,44.0592063 47.3612,48.4677123 47.3612,48.4677123 L47.6020889,46.1896411 L43.1298667,46.0696727 C43.1298667,46.0696727 43.1020889,50.2014988 43.0743111,52.0552538 C43.0452,53.9959968 46.3634222,55.6627162 48.6205333,53.4846925 C49.8056444,52.34123 52.0094222,50.9208664 52.0094222,50.9208664 C52.0094222,50.9208664 54.9354222,53.0789692 55.2687556,53.1343051 C55.6020889,53.1896411 58.0398667,53.571902 58.1716444,53.5769929 C58.5187556,53.5909375 58.8660889,53.1205818 58.8660889,53.1205818 C58.8660889,53.1205818 60.7132,53.0929138 61.1158667,53.0652458 C61.5187556,53.0375779 62.0465333,52.6639494 62.0465333,52.6639494 C62.0465333,52.6639494 62.7187556,52.7425265 63.1298667,52.760898 C64.0605333,52.8022893 64.0883111,51.9445818 64.0883111,51.9445818 C64.0883111,51.9445818 64.4214222,51.8201866 64.5325333,51.4049455 C64.6436444,50.9899257 64.5465333,50.491902 63.4216444,49.8832063 C62.2965333,49.2745107 59.5327556,47.559317 59.2272,47.3516964 C58.9216444,47.1442972 58.1438667,46.410985 58.1298667,46.355649 C58.1160889,46.300313 57.5605333,45.5532775 58.5883111,45.5256095 C59.6160889,45.4979415 60.8936444,45.7330087 61.5325333,45.6362814 C62.1716444,45.5393328 63.1994222,45.2628743 63.4909778,44.4742261" id="Fill-119" fill="#DFA88E"></path>
                        <path d="M63.4909778,44.4742261 C63.7118667,43.8770403 62.8958667,43.2291668 61.8600889,43.2291668 C60.8243111,43.2291668 60.3520889,43.1184949 59.1716444,43.2291668 C57.9909778,43.3398387 54.5465333,43.5950482 53.7687556,43.8272379 C52.9909778,44.0592063 47.3612,48.4677123 47.3612,48.4677123 L47.6020889,46.1896411 L43.1298667,46.0696727 C43.1298667,46.0696727 43.1020889,50.2014988 43.0743111,52.0552538 C43.0452,53.9959968 46.3634222,55.6627162 48.6205333,53.4846925 C49.8056444,52.34123 52.0094222,50.9208664 52.0094222,50.9208664 C52.0094222,50.9208664 54.9354222,53.0789692 55.2687556,53.1343051 C55.6020889,53.1896411 58.0398667,53.571902 58.1716444,53.5769929 C58.5187556,53.5909375 58.8660889,53.1205818 58.8660889,53.1205818 C58.8660889,53.1205818 60.7132,53.0929138 61.1158667,53.0652458 C61.5187556,53.0375779 62.0465333,52.6639494 62.0465333,52.6639494 C62.0465333,52.6639494 62.7187556,52.7425265 63.1298667,52.760898 C64.0605333,52.8022893 64.0883111,51.9445818 64.0883111,51.9445818 C64.0883111,51.9445818 64.4214222,51.8201866 64.5325333,51.4049455 C64.6436444,50.9899257 64.5465333,50.491902 63.4216444,49.8832063 C62.2965333,49.2745107 59.5327556,47.559317 59.2272,47.3516964 C58.9216444,47.1442972 58.1438667,46.410985 58.1298667,46.355649 C58.1160889,46.300313 57.5605333,45.5532775 58.5883111,45.5256095 C59.6160889,45.4979415 60.8936444,45.7330087 61.5325333,45.6362814 C62.1716444,45.5393328 63.1994222,45.2628743 63.4909778,44.4742261 Z" id="Stroke-121" stroke="#222C35" stroke-width="0.888888889" stroke-linecap="round" stroke-linejoin="round"></path>
                        <path d="M59.3798667,49.2977518 C59.3798667,49.2977518 60.8798667,50.4414356 61.0465333,50.4781787 C61.2132,50.5151431 62.8798667,50.7734514 63.1389778,50.9208664 C63.3983111,51.0685028 63.8243111,51.2805502 63.9076444,51.9722498" id="Stroke-123" stroke="#222C35" stroke-width="0.5" stroke-linecap="round"></path>
                        <path d="M57.8243111,50.3121708 L59.0834222,51.3819257 C59.0834222,51.3819257 61.5834222,51.4188901 61.8798667,51.6218625 C62.1760889,51.8246134 62.2965333,52.3319336 61.7825333,52.5948901" id="Stroke-125" stroke="#222C35" stroke-width="0.5" stroke-linecap="round"></path>
                        <path d="M56.1205333,51.1053565 L56.9354222,51.8984316 C56.9354222,51.8984316 58.1389778,52.0091036 58.4167556,52.2304474 C58.6945333,52.4517913 58.7500889,52.9314435 58.5465333,53.1711589" id="Stroke-127" stroke="#222C35" stroke-width="0.5" stroke-linecap="round"></path>
                        <path d="M51.1437556,49.4959652 C51.5510889,50.1969613 51.9955333,50.694985 52.8104222,51.2667162" id="Stroke-129" stroke="#222C35" stroke-width="0.5" stroke-linecap="round"></path>
                        <g id="Group-134" transform="translate(45.555556, 47.810277)">
                            <path d="M2.74097778,0.163949407 C1.60208889,1.21533281 0.532533333,1.67174387 0.2132,2.61267668" id="Fill-131" fill="#DFA88E"></path>
                            <path d="M2.74097778,0.163949407 C1.60208889,1.21533281 0.532533333,1.67174387 0.2132,2.61267668" id="Stroke-133" stroke="#222C35" stroke-width="0.5" stroke-linecap="round" stroke-linejoin="round"></path>
                        </g>
                    </g>
                </g>
                <path d="M123.8,41.9889328 L116.066667,41.9889328 L116.066667,50.687747 L107.2,50.687747 L107.2,41.9889328 L83.3333333,41.9889328 L83.3333333,35.6806324 L104.333333,5.53359684 L116.066667,5.53359684 L116.066667,34.286166 L123.8,34.286166 L123.8,41.9889328 Z M92.8666667,34.286166 L107.2,34.286166 L107.2,13.9003953 L92.8666667,34.286166 Z" id="Path" fill="#323C46"></path>
            </g>
        </g>
    </g>
</svg>